<?xml version="1.0" encoding="UTF-8"?>
<!DOCTYPE svg PUBLIC "-//W3C//DTD SVG 1.1//EN" "http://www.w3.org/Graphics/SVG/1.1/DTD/svg11.dtd">
<!-- Creator: CorelDRAW 2020 (64-Bit) -->
<svg xmlns="http://www.w3.org/2000/svg" xml:space="preserve" width="64px" height="64px" version="1.1" style="shape-rendering:geometricPrecision; text-rendering:geometricPrecision; image-rendering:optimizeQuality; fill-rule:evenodd; clip-rule:evenodd"
viewBox="0 0 64 64"
 xmlns:xlink="http://www.w3.org/1999/xlink"
 xmlns:xodm="http://www.corel.com/coreldraw/odm/2003">
 <defs>
  <style type="text/css">
   <![CDATA[
    .fil1 {fill:#FEFEFE;fill-rule:nonzero}
    .fil2 {fill:#3C5D95;fill-rule:nonzero}
    .fil0 {fill:url(#id0)}
   ]]>
  </style>
  <linearGradient id="id0" gradientUnits="userSpaceOnUse" x1="4.84" y1="2.17" x2="64" y2="62.03">
   <stop offset="0" style="stop-opacity:1; stop-color:#EE3770"/>
   <stop offset="0.478431" style="stop-opacity:1; stop-color:#E73E77"/>
   <stop offset="1" style="stop-opacity:1; stop-color:#C33280"/>
  </linearGradient>
 </defs>
 <g id="Layer_x0020_1">
  <metadata id="CorelCorpID_0Corel-Layer"/>
  <rect class="fil0" width="64" height="64" rx="6.48" ry="6.48"/>
  <path class="fil1" d="M31.28 33.43l-4.49 0 -5.36 9.28c-2.53,4.4 -5.52,6.6 -8.99,6.6 -2.13,0 -3.91,-0.76 -5.35,-2.29 -1.45,-1.53 -2.17,-3.43 -2.17,-5.68 0,-1.84 0.56,-3.61 1.67,-5.32 1.11,-1.7 2.63,-3.11 4.55,-4.23 1.44,-0.83 3.03,-1.4 4.78,-1.74 1.75,-0.34 4.08,-0.5 6.98,-0.5l1.2 0 1.28 -2.35c1.78,-3.27 3.96,-5.46 6.53,-6.55 1.65,-0.7 3.81,-1.05 6.47,-1.05 0.68,0 1.22,0.15 1.61,0.45 0.39,0.31 0.58,0.73 0.58,1.27 0,0.25 -0.06,0.53 -0.19,0.87l-0.15 0.37 -2.79 6.99 1.24 0 0.42 0c1.2,0 1.8,0.52 1.8,1.57 0,0.64 -0.25,1.19 -0.74,1.63 -0.49,0.45 -1.1,0.68 -1.81,0.68l-0.44 0 -2.04 0 -1.8 4.41 2.64 0 0.42 0c1.21,0 1.82,0.52 1.82,1.56 0,0.64 -0.25,1.2 -0.75,1.64 -0.5,0.45 -1.1,0.68 -1.81,0.68l-0.44 0 -3.46 0c-0.93,0 -1.69,-0.24 -2.28,-0.72 -0.59,-0.48 -0.88,-1.11 -0.88,-1.87 0,-0.6 0.22,-1.44 0.66,-2.53l1.29 -3.17zm1.58 -3.88l2.33 -5.76c-1.14,0.08 -2.11,0.44 -2.89,1.1 -0.78,0.65 -1.68,1.84 -2.68,3.56l-0.66 1.1 3.9 0zm-10.98 3.88l-1.38 0c-3.08,0 -5.53,0.57 -7.35,1.72 -1.15,0.73 -2.07,1.65 -2.75,2.75 -0.69,1.1 -1.03,2.21 -1.03,3.34 0,1.02 0.33,1.9 0.99,2.63 0.65,0.73 1.45,1.1 2.39,1.1 1.63,0 3.07,-1.09 4.32,-3.24l4.81 -8.3z"/>
  <path id="1" class="fil2" d="M54.12 37.84l2.72 0c1.49,0 2.24,0.52 2.24,1.56 0,0.73 -0.26,1.3 -0.79,1.71 -0.52,0.4 -1.26,0.61 -2.21,0.61l-2.95 0c-1.19,0 -2.1,-0.23 -2.71,-0.69 -0.62,-0.46 -0.93,-1.13 -0.93,-2 0,-0.62 0.22,-1.47 0.67,-2.57l3.25 -8c0.66,-1.62 0.99,-2.73 0.99,-3.33 0,-0.49 -0.22,-0.93 -0.66,-1.31 -0.45,-0.38 -0.95,-0.57 -1.53,-0.57 -1.08,0 -2.05,0.46 -2.93,1.4 -0.88,0.92 -1.31,1.97 -1.31,3.12 0,0.67 0.15,1.19 0.44,1.55 0.3,0.37 0.85,0.71 1.65,1.02 0.7,0.28 1.06,0.75 1.06,1.43 0,0.63 -0.23,1.14 -0.7,1.55 -0.47,0.4 -1.06,0.6 -1.76,0.6 -1.35,0 -2.51,-0.57 -3.46,-1.71 -0.96,-1.15 -1.44,-2.53 -1.44,-4.13 0,-2.34 0.88,-4.39 2.65,-6.14 1.77,-1.76 3.82,-2.64 6.17,-2.64 1.77,0 3.25,0.52 4.43,1.55 1.18,1.04 1.77,2.32 1.77,3.87 0,1.11 -0.28,2.36 -0.84,3.73l-3.82 9.39z"/>
 </g>
</svg>
